# xmcd
#
# Track frame offsets:
#	150
#	19191
#	35455
#	50548
#	61616
#	76713
#	92190
#	112764
#	135830
#	153512
#	167460
#	187432
#	210513
#	235073
#
# Disc length: 3405 seconds
#
# Revision: 0
# Processed by: cddbd v1.5.2PL0 Copyright (c) Steve Scherf et al.
# Submitted via: FairStars CD Ripper 1.52
#
DISCID=a50d4b0e
DTITLE=Rodney Crowell - Playlist
DYEAR=2012
DGENRE=Country
TTITLE0=When The Blue Hour Comes
TTITLE1=She Loves The Jerk
TTITLE2=It's Such A Small World
TTITLE3=Above and Beyond
TTITLE4=I Didn't Know I Could Lose You
TTITLE5=If Looks Could Kill
TTITLE6=Life Is Messy
TTITLE7=Alone But Not Alone
TTITLE8=Even Cowgirls Get The Blues
TTITLE9=Standing On A Rock
TTITLE10=Earthbound
TTITLE11=Preachin' To The Choir
TTITLE12=Shelter From The Storm
TTITLE13=Dancin' Circles Round The Sun
EXTD=
EXTT0=
EXTT1=
EXTT2=
EXTT3=
EXTT4=
EXTT5=
EXTT6=
EXTT7=
EXTT8=
EXTT9=
EXTT10=
EXTT11=
EXTT12=
EXTT13=
PLAYORDER=
